<svg xmlns="http://www.w3.org/2000/svg" viewBox="0 0 981.39 541.41"><g id="Layer_2" data-name="Layer 2"><g id="Layer_1-2" data-name="Layer 1"><path d="M385,117.86c62.2-75.44,183-59,217.39-37.08,13.62,78.52-23,131.55-44.19,152.06-22.17,21.51-81.43,42.26-113,7.19h0c86.29,4.27,99.83-82.31,96.94-110.9a118.75,118.75,0,0,0-27.42-4c-95.94-2.35-150.09,116.13-67.66,165.29l1,.57a108.41,108.41,0,0,0,49,13l.64,0c63.47,1.16,120.7-38.92,140.72-99.17a155.6,155.6,0,0,0,7.91-49.13h0A155.71,155.71,0,0,0,490.7,0h0A155.71,155.71,0,0,0,335,155.71h0a155.2,155.2,0,0,0,13.18,62.78C347.75,180.46,361.76,146.1,385,117.86Z" fill="#fff"/><path d="M615.39,275.74v10.49h-1.8V275.74h-3.93l.22-1.64h9.24l.21,1.64Z" fill="#fff"/><path d="M634.8,286.23H633l-.17-3.73-.17-4.9-3.83,8.63h-1.68l-3.85-8.74-.18,5-.19,3.73h-1.78l.59-12.13h1.77L628,284.29l4.48-10.19h1.75Z" fill="#fff"/><path d="M0,445c0-28,19.89-50.79,48.83-50.79,29.13,0,47.25,21.23,47.25,48.41v7.93H18.9c2.17,16.67,14.77,28.37,32.09,28.37a32.89,32.89,0,0,0,19.85-6.14,21.68,21.68,0,0,1,23-2.16l.32.17c-8.47,16.66-24,25.59-42.92,25.59C21.85,496.38,0,475,0,445Zm76.59-7.14c-.79-15.48-12-26-28-26-16.34,0-27,11.5-28.94,26Z" fill="#fff"/><path d="M104.44,445.39c0-27.77,22-50.78,51.39-50.78,29.13,0,51.38,21.82,51.38,50.78V494.2h-1.57a17,17,0,0,1-16.93-17.06h0c-7.29,11.91-20.09,19.45-35.84,19.45C124.92,496.58,104.44,473.56,104.44,445.39Zm83.28.2c0-17.85-13.78-32.53-31.89-32.53-17.92,0-31.9,14.68-31.9,32.53a32.06,32.06,0,0,0,31.9,32.34C173.94,477.93,187.72,463.25,187.72,445.59Z" fill="#fff"/><path d="M235.1,494.2a19.57,19.57,0,0,1-19.49-19.65V436.27C215.61,412.66,229,395,254.2,395a41,41,0,0,1,17.32,3.57V418A31,31,0,0,0,256,413.85c-13,0-20.87,8.93-20.87,23.21V494.2Z" fill="#fff"/><path d="M299,459.28V414.05H279.92V397H299v-25.2H318.5V397h20.08a17,17,0,0,1,16.94,17.06h-37v44.64c0,12.69,7.48,20.23,19.1,20.23a32.69,32.69,0,0,0,17.92-5.75v18.05c-4.93,3.37-12.6,5.55-19.69,5.55C311.81,496.77,299,481.5,299,459.28Z" fill="#fff"/><path d="M363.91,494.2V352.35h0A19.57,19.57,0,0,1,383.4,372V407.9c7.48-8.13,19.1-13.29,32.09-13.29,28.35,0,44.3,19,44.3,48.8V494.2H440.3V445.39c0-17.26-9.45-32.13-27.76-32.13-17.13,0-29.14,13.88-29.14,32.73V494.2Z" fill="#fff"/><path d="M466.07,515.42h0A23.76,23.76,0,0,1,491.39,517a34.63,34.63,0,0,0,20.35,6.12c20.48,0,31.11-15.47,31.11-36.5v-8.53c-5.71,10.91-16,17.45-30.52,17.45-29.53,0-43.9-19.64-43.9-48.2V397h19.3v49.4c0,18.25,9.45,30.74,27,30.74,16.93,0,27.95-14.28,27.95-32.13V397h19.69v89.47c0,32.53-18.9,54.95-50.2,54.95C491.66,541.41,474.73,532.68,466.07,515.42Z" fill="#fff"/><path d="M600.32,465V405.12H579.05a6.52,6.52,0,0,1,6.5-6.54h14.77V373h0a6.92,6.92,0,0,1,6.89,6.95v18.65h40.36v6.54H607.21v59.72c0,15.47,8.66,24.59,22,24.59a26.68,26.68,0,0,0,18.31-7.14v7.34a30.16,30.16,0,0,1-18.71,6.55C611.34,496.18,600.32,484.08,600.32,465Z" fill="#fff"/><path d="M655.93,446.19c0-27.18,21.06-49.6,49.21-49.6,27.37,0,49.22,21.82,49.22,49.6v48h0a6.72,6.72,0,0,1-6.69-6.75V467.81A46.53,46.53,0,0,1,704.55,496C677.19,496,655.93,473.56,655.93,446.19Zm91.54,0c0-23.41-18.9-42.85-42.33-42.85S663,422.78,663,446.19c0,23.6,18.71,43.05,42.13,43.05S747.47,469.79,747.47,446.19Z" fill="#fff"/><path d="M762.72,445.72v-91h0a6.92,6.92,0,0,1,6.89,6.95v61.89a47.26,47.26,0,0,1,42.72-27c27.56,0,48.83,22.42,48.83,50s-21.46,50-49.81,49.59C784.26,495.77,762.72,473,762.72,445.72Zm91.55.86c0-23.6-18.71-43.24-42.13-43.24-23.63,0-42.33,19.64-42.33,43.24,0,23.41,18.7,42.85,42.33,42.85C835.56,489.43,854.27,470,854.27,446.58Z" fill="#fff"/><path d="M866.37,475.15h0a7.11,7.11,0,0,1,9.23,2c6.19,8.2,15,11.67,25.22,11.67,14.18,0,26.38-7.34,26.38-20.24,0-29.16-57.68-9.12-57.68-45,0-15.47,14.37-26,30.71-26,13.78,0,25.4,5.76,31.89,17.46h0a7.36,7.36,0,0,1-9.27-1.58c-5.72-6.71-13.67-9.13-22.42-9.13-12.21,0-23.82,7.54-23.82,19.24,0,28.37,57.68,8.73,57.68,45,0,16.67-15.55,27-33.27,27C886.25,495.58,873.26,488.84,866.37,475.15Z" fill="#fff"/><path d="M945.89,370.17v19.17h-3.3V370.17H935.4l.41-3H952.7l.38,3Z" fill="#fff"/><path d="M981.39,389.34h-3.3l-.31-6.81-.32-9-7,15.78h-3.08l-7-16-.32,9.16-.35,6.81h-3.26l1.07-22.19h3.24l8.21,18.64,8.17-18.64h3.2Z" fill="#fff"/></g></g></svg>